<?xml version="1.0" standalone="no"?>
<!DOCTYPE svg PUBLIC "-//W3C//DTD SVG 20010904//EN"
 "http://www.w3.org/TR/2001/REC-SVG-20010904/DTD/svg10.dtd">
<svg version="1.0" xmlns="http://www.w3.org/2000/svg"
 width="700.000000pt" height="700.000000pt" viewBox="0 0 700.000000 700.000000"
 preserveAspectRatio="xMidYMid meet">
<metadata>
Created by potrace 1.14, written by Peter Selinger 2001-2017
</metadata>
<g transform="translate(0.000000,700.000000) scale(0.100000,-0.100000)"
fill="#000000" stroke="none">
<path d="M3345 5716 l-590 -342 -3 -312 -2 -312 -208 -2 -207 -3 0 -505 0
-505 208 -3 207 -2 0 -683 c1 -718 11 -1179 30 -1311 56 -391 225 -610 563
-731 152 -54 247 -69 447 -70 96 0 201 4 233 8 l57 8 0 138 0 137 -77 -9
c-128 -14 -385 -3 -476 22 -237 63 -369 175 -430 366 -50 155 -50 146 -54
1318 l-4 1097 -210 0 -209 0 0 220 0 220 210 0 210 0 2 377 3 377 310 182 310
182 3 -554 2 -554 205 0 205 0 0 135 0 135 -65 0 -65 0 0 660 c0 363 -3 660
-7 659 -5 0 -273 -155 -598 -343z"/>
<path d="M3671 3233 c0 -428 4 -886 8 -1018 10 -291 20 -326 112 -416 65 -64
138 -98 232 -106 l57 -6 0 137 c0 130 -1 136 -20 136 -34 0 -80 29 -92 58 -9
20 -13 261 -16 875 l-4 847 66 0 66 0 0 135 0 135 -205 0 -205 0 1 -777z"/>
</g>
</svg>
